<svg width="845" height="1200" xmlns="http://www.w3.org/2000/svg">
  <path style="fill:#000" d="M198.934 1195.75c-.096-6.164.115-13.722.745-26.688.364-7.503.124-13.351-.698-17-.749-3.327-1.61-19.426-2.141-40.062-1.214-47.099-1.218-47.15-3.28-50.553-.982-1.62-4.435-4.855-7.673-7.187-5.232-3.768-5.887-4.625-5.887-7.701 0-6.77-2.146-13.23-8.66-26.059-15.076-29.698-14.653-28.4-10.901-33.444 1.408-1.895 2.561-3.873 2.561-4.397 0-.523 1.913-3.08 4.25-5.68 11.421-12.71 10.66-11.403 19.15-32.88l4.506-11.4-1.475-38.6c-.812-21.23-1.956-39.949-2.541-41.599-1.45-4.082-4.188-43.208-4.453-63.635-.12-9.15-.506-22.2-.86-29-.354-6.8-.874-25.843-1.155-42.316-.352-20.644-.873-30.388-1.676-31.356-.641-.772-3.617-2.488-6.614-3.813-7.361-3.256-18.674-12.561-21.135-17.386-3.165-6.205-2.601-8.912 4.507-21.613 8.131-14.532 12.84-20.99 16.797-23.037 1.698-.878 7.365-2.194 12.593-2.924 6.703-.936 10.257-1.941 12.055-3.41 1.403-1.147 3.836-2.855 5.406-3.797 1.57-.942 5.216-3.626 8.101-5.963 5.508-4.462 7.988-5.037 13.473-3.125 5.306 1.85 7.268.196 10.997-9.27 1.81-4.595 5.605-12.855 8.433-18.355 4.798-9.333 5.132-10.453 5-16.789-.115-5.547-.618-7.477-2.75-10.553-1.435-2.071-2.609-4.277-2.609-4.903 0-1.982-2.108-2.535-4.594-1.205-1.322.708-2.715.974-3.097.592-.382-.382.363-4.17 1.656-8.418 3.21-10.548 3.54-13.56 1.657-15.123-1.292-1.072-2.07-.918-4.644.915-1.701 1.211-3.242 2.04-3.423 1.843-.181-.197 2.099-4.409 5.067-9.359s6.15-11.025 7.073-13.5c3.592-9.644 7.76-15.632 17.54-25.207 5.455-5.339 10.788-9.983 11.852-10.32 1.064-.338 2.614-1.929 3.445-3.534.83-1.606 2.67-3.68 4.087-4.609 2.157-1.413 2.912-1.48 4.628-.408 2.988 1.866 11.753-2.243 11.753-5.51 0-1.235.338-2.395.75-2.579.412-.183 1.487-1.93 2.387-3.88 1.976-4.28 7.901-6.817 10.004-4.283.668.804 2.53 2.143 4.138 2.974 2.743 1.419 3.075 1.372 5.323-.74l2.398-2.253v2.118c0 1.165-.985 2.808-2.19 3.651-1.204.844-1.991 1.698-1.75 1.899.242.2 4.94-.043 10.44-.542 11.613-1.052 24.184-.386 31.713 1.68 8.352 2.294 16.655 5.078 17.42 5.842 1.688 1.689 5.165.643 5.761-1.733.336-1.338 1.96-3.394 3.61-4.57 4.414-3.142 5.417-5.535 3.915-9.337-.687-1.737-1.922-3.95-2.744-4.915-.823-.966-1.218-2.034-.879-2.374 1.22-1.22 3.42.512 5.073 3.996.927 1.952 2.122 3.82 2.658 4.15 2.058 1.273.954 6.436-2.126 9.944-5.188 5.91-4.57 9.027 3.479 17.56 3.724 3.948 8.327 9.61 10.228 12.581 3.817 5.967 11.521 12.593 16.907 14.54 1.917.694 3.485 1.896 3.485 2.673 0 1.118-.991 1.266-4.75.706-2.613-.389-5.313-1.17-6-1.736-1.96-1.614-1.563 1.683.75 6.216 1.1 2.156 2 4.788 2 5.85 0 1.06.862 2.99 1.915 4.29l1.915 2.36 2.4-2.25c2.978-2.793 3.77-2.827 3.77-.16 0 1.15 1.35 3.275 3 4.723 2.191 1.923 3 3.519 3 5.92 0 4.703-3.76 12.092-7.008 13.771-3.594 1.859-4.127 3.51-3.02 9.353 2.234 11.778 9.706 22.831 16.887 24.983 4.706 1.41 6.012.977 8.641-2.864 1.1-1.607 4.35-6.329 7.223-10.493 2.873-4.164 5.687-9.292 6.254-11.396 1.357-5.04 4.34-8.697 9.051-11.102 2.112-1.077 4.539-2.956 5.393-4.176 2.032-2.9 12.466-10.716 15.265-11.433 2.211-.567 11.314 4.744 11.314 6.6 0 1.94 3.326 4.024 6.422 4.024 1.804 0 4.621.468 6.26 1.04 3.761 1.31 6.656.265 13.588-4.908 2.877-2.147 6.224-4.204 7.44-4.572 1.214-.368 3.612-2.441 5.328-4.608 2.576-3.253 3.442-3.765 4.975-2.945 3.371 1.804 5.51 1.048 11.53-4.079 7.11-6.054 9.125-7.274 9.913-6 .317.514.092 1.234-.501 1.6-1.592.983-2.988 5.223-2.306 7 .327.85 2.001 2.145 3.722 2.877 1.721.732 5.154 3.098 7.629 5.257 9.715 8.474 14.334 11.007 28.805 15.801 13.417 4.445 21.842 8.921 22.912 12.173.206.625-.997 1.614-2.672 2.198-1.675.584-3.045 1.755-3.045 2.601 0 .847 3.354 4.293 7.454 7.657 7.025 5.766 7.375 6.242 6.072 8.263-2.276 3.531 4.194 13.12 18.602 27.569 10.464 10.494 12.074 12.523 11.131 14.032-1.688 2.704 1.247 6.668 19.741 26.662 25.724 27.81 34.062 36.214 39.221 39.524 5.1 3.272 5.792 5.082 3.087 8.07-1.59 1.758-1.58 2.06.175 5.079 1.026 1.765 3.587 5.185 5.691 7.6 4.551 5.223 4.729 6.549 1.076 8.024-1.513.61-4.1 1.978-5.75 3.039-2.665 1.714-3.826 1.825-10.407.995-8.885-1.12-9.876-.553-10.291 5.88-.294 4.553-.39 4.678-3.802 4.948-1.925.153-5.975-.383-9-1.192-5.147-1.375-5.747-1.342-9.346.507l-3.845 1.976-5.155-3.405c-2.835-1.873-7.404-4.565-10.154-5.983-2.75-1.418-6.35-3.498-8-4.622-4.15-2.829-9.377-2.63-14.035.53-4.11 2.79-6.884 2.845-15.188.305-3.855-1.18-4.563-1.1-8.136.908-5.216 2.93-7.841 2.775-13.48-.801-5.523-3.503-8.175-3.777-9.661-1-.589 1.1-1.742 2-2.564 2-2.073 0-12.78-5.504-14.323-7.363-.697-.84-3.37-2.848-5.94-4.462-3.677-2.31-6.246-3.057-12.059-3.508-5.244-.407-7.998-1.124-9.5-2.471-1.163-1.044-2.643-2.196-3.29-2.56-1.967-1.108-6.197 1.484-8.335 5.107-1.938 3.285-2.198 3.397-6.25 2.713-2.326-.393-5.712-1.51-7.524-2.481-3.497-1.874-6.408-1.652-8.305.633-1.738 2.094-4.88 1.685-9.005-1.174-3.324-2.304-4.096-2.456-7.554-1.494-2.118.59-4.934 1.912-6.257 2.938l-2.406 1.866 1.744 7.378c4.23 17.891 6.896 25.914 15.99 48.11 3.006 7.335 3.578 9.927 3.578 16.204 0 7.34.342 8.644 6.315 24.064.852 2.2 2.423 7.6 3.49 12 4.123 16.98 13.171 38.82 18.938 45.707 9.658 11.534 10.683 14.267 11.257 29.995.275 7.536.969 14.17 1.541 14.741.573.572 3.214 1.445 5.868 1.941 6.385 1.193 9.516 3.683 12.846 10.213 3.144 6.167 4.546 11.984 5.643 23.403.885 9.22 3.65 15.957 11.055 26.93 5.677 8.413 9.474 11.91 14.772 13.607 2.076.665 4.705 2.055 5.842 3.088 1.136 1.033 5.186 2.89 9 4.127l6.933 2.248-.077 5c-.042 2.75-.605 7.424-1.25 10.386-.645 2.963-1.173 7.937-1.173 11.054 0 5.159-.313 5.97-3.481 9.042-1.915 1.855-3.921 4.756-4.459 6.446-1.074 3.378-3.178 24.892-3.103 31.747.025 2.379-.184 7.925-.465 12.325-.282 4.4-.923 20.375-1.425 35.5s-1.157 31.1-1.455 35.5c-.299 4.4-.559 20.712-.578 36.25L614 1200h-12c-6.6 0-12.026-.113-12.059-.25-.032-.138-.28-18.25-.55-40.25-.437-35.425-.71-40.743-2.393-46.5-1.298-4.44-2.053-10.935-2.383-20.5-.265-7.7-1-16.25-1.634-19-.634-2.75-1.246-8.825-1.36-13.5-.195-7.955-.494-9.037-4.665-16.878-5.102-9.593-11.18-15.468-20.54-19.85-5.274-2.471-6.879-2.744-14.785-2.515-8.283.24-21.389 3.158-24.254 5.399-.617.483-5.473 3.093-10.79 5.8-5.317 2.707-10.437 5.838-11.377 6.957-1.278 1.522-4.11 2.414-11.21 3.534-5.225.823-11.509 1.917-13.964 2.43-3.883.811-5.413.555-11.776-1.972-4.021-1.598-8.988-2.87-11.036-2.827-3.686.077-10.86 2.32-14.724 4.605-1.977 1.169-1.996 2.062-1.663 78.25l.337 77.067H405l-.11-16.25c-.06-8.938-.062-35.97-.004-60.073.11-45.662-.22-49.771-3.725-46.266-1.418 1.417-1.604 3.894-1.348 17.949.261 14.387.095 16.472-1.413 17.722-3.918 3.25-4.253 6.419-4.99 47.234L392.69 1200h-23.48l-.558-42.25c-.678-51.372-1.283-71.435-2.51-83.25-.513-4.95-.7-11.337-.416-14.194.788-7.917-.27-11.889-3.501-13.135-3.471-1.339-16.597-2.957-30.79-3.795-12.671-.749-16.63.129-20.958 4.647-1.569 1.637-3.682 2.977-4.696 2.977-1.015 0-2.1.667-2.414 1.483-.313.816 1.263 10.829 3.503 22.25 2.24 11.422 4.742 25.267 5.56 30.767 1.588 10.67 6.87 34.83 10.493 48 6.452 23.452 11.56 35.71 17.722 42.53l3.587 3.97h-50.156l-1.05-4.25a420.56 420.56 0 0 0-2.145-8.25c-1.137-4.16-15.495-37.192-16.984-39.073-1.124-1.42-13.371-29.167-16.515-37.416-1.36-3.57-3.517-8.295-4.793-10.5-1.276-2.206-3.972-8.511-5.992-14.011-4.23-11.514-6.802-14.5-12.493-14.5-3.084 0-3.999.47-4.944 2.547-.639 1.4-1.161 4.046-1.161 5.878 0 1.832-.626 4.848-1.392 6.703-.837 2.028-1.637 9.15-2.006 17.872-1.018 23.995-.81 76.028.33 82.5.581 3.3 1.059 7.463 1.062 9.25L226 1200h-27ZM422 430.304c-1.925-.207-4.625-.772-6-1.256s-6.1-1.645-10.5-2.581c-4.4-.936-12.95-3.177-19-4.981-6.05-1.804-13.475-3.839-16.5-4.52-3.025-.683-8.2-2.47-11.5-3.974-3.3-1.503-8.7-3.718-12-4.923-8.25-3.01-11.422-4.67-15.5-8.108l-3.5-2.95L330 395c2.147-1.727 3.516-1.939 9.692-1.503 3.956.28 8.414.972 9.907 1.54 1.493.567 4.507 1.204 6.698 1.415 2.191.211 4.258.809 4.594 1.327.581.901 3.408 1.634 11.109 2.882 1.925.312 4.175 1.13 5 1.818.825.688 2.85 1.572 4.5 1.963 1.65.392 6.25 2.253 10.222 4.135 3.971 1.882 8.021 3.433 9 3.447 5.856.08 20.684 7.16 26.17 12.494 3.548 3.45 3.743 6.622.39 6.321a406.2 406.2 0 0 1-5.282-.536zm2.325-3.829c.171-.953-3.13-2.865-10.27-5.95-1.955-.844-4.23-1.917-5.055-2.383-5.387-3.048-13.865-5.81-21-6.842-1.925-.278-4.175-1.284-5-2.235-1.626-1.875-10.795-5.065-14.556-5.065-1.28 0-2.604-.45-2.944-1-.34-.55-2.579-1-4.976-1-2.396 0-4.507-.45-4.69-1-.592-1.773-23.834-6.216-23.834-4.556 0 3.037 16.558 11.556 22.46 11.556.798 0 3.109 1.125 5.135 2.5s4.636 2.5 5.799 2.5c1.163 0 5.038 1.057 8.61 2.349 3.573 1.291 8.296 2.66 10.496 3.04 3.784.655 7.48 1.775 12 3.637 2.362.972 6.999 2.006 10.5 2.341 1.375.131 3.175.54 4 .907 1.77.788 11.133 2.56 12.325 2.333.454-.086.904-.596 1-1.132zm-51.301-14.43c-6.736-3.017-8.313-4.613-5.59-5.658 2.888-1.108 13.566 4.954 13.566 7.702 0 1.357-.888 1.129-7.976-2.045z"/>
</svg>
